<?xml version="1.0" encoding="utf-8"?>
<!-- Generator: Adobe Illustrator 22.0.1, SVG Export Plug-In . SVG Version: 6.00 Build 0)  -->
<svg version="1.1" id="Layer_1" xmlns="http://www.w3.org/2000/svg" xmlns:xlink="http://www.w3.org/1999/xlink" x="0px" y="0px"
	 viewBox="0 0 864 864" style="enable-background:new 0 0 864 864;" xml:space="preserve">
<path d="M215.7,337.1c-0.6,20.5-1.5,47.1-1.7,67.7c1-1.2,9.7-1.6,10.8,0c0.7-19.3,0.8-44,1.1-63.3c3.9,1.3,8,2.2,11.7,2.8
	c12.8,2.2,26,2.3,38.9,0.9c2.7-0.3,5.4-0.6,8-1c0.1,21.2,1.3,42.4,5.4,63.2c0.6,3.3,5.8,0.5,5.8-2c-0.2-21.2-0.8-42.3-0.8-63.4
	c4.1-1.2,8.2-2.8,12.1-5c15.1-8.6,26.9-22.2,35.8-37c9.3-15.6,15.6-33.4,18.2-51.3c2.1-14.4,4.6-36.2-6.1-48
	c-12.5-13.8-32-1.8-41.8,8.9c-12.8,13.8-19.2,32.6-22.5,50.8c-4.4,23.9-5.5,48.8-5.8,73.1c0,0.9,0,1.8,0,2.7
	c-1.1,0.2-2.2,0.3-3.4,0.4c-12.1,1.4-24.7,1.5-36.7-0.5c-6.7-1.1-12.7-2.9-18.4-5.5c0.1-9.6,0.3-19.1,0.5-28.7
	c0.7-33,1.8-66.2,0.8-99.2c-0.1-4.8-7.1-2-7.3,1.7c-2.4,33.2-2.7,66.6-3.5,99.9c-0.2,6.9-0.3,13.8-0.5,20.7
	c-1.8-1.2-3.6-2.4-5.3-3.8c-3.2-2.5-8.4,2.7-6.2,6C207.3,331.3,211.2,334.6,215.7,337.1z M296.7,291.3c1.5-18.3,3.3-37.3,10.3-54.4
	c4.8-12,16.4-33.4,32-32.5c16.1,1,14,29.3,13.3,40c-1.1,16.8-5.8,33.2-13.6,48.1c-7.2,13.7-17.5,27-30.6,35.6
	c-4.2,2.8-8.6,4.7-13.2,6C295,319.7,295.5,305.5,296.7,291.3z M402.4,384.1c3.7-11.6,2.7-25.1,2.9-37.1c0.2-12.9,0.8-25.9,0.3-38.8
	c-0.3-7.4-11-7.5-11.6-0.2c-7.1-8.1-22.3-3.5-30.1,2.7c-12.4,9.9-20,24.9-22,40.6c-1.7,13.2,1.2,37.4,19.6,36.4
	c11.9-0.6,20.2-14.4,25.1-23.6c2.6-4.9,4.9-9.9,7-15.1c-0.1,11.5-1.1,24.1,2.3,35.1C396.8,387.4,401.3,387.3,402.4,384.1z
	 M392.6,315.6c-3.6,11.7-7.1,23.4-11.8,34.6c-3.3,8-9.2,23.7-18.5,26.8c-9.2,3-11.4-12.7-11.7-18.5c-0.5-7.9,0.8-15.7,3.5-23.1
	c4.6-12.3,27.5-41.5,38.8-20.6C392.8,315,392.7,315.3,392.6,315.6z M429.8,307.4c0.5,11.1,0.5,22.3,0.3,33.5
	c2.6-9.5,6.5-18.6,12.1-26.4c4.4-6.2,10.8-12.3,19-11.2c8.4,1.2,14,8.9,17.1,16.2c7.9,18.4,10.1,46.7-5.4,61.9
	c-14.6,14.3-38.2,1.8-33.2-18.6c0.7-2.9,5.2-3.7,6.6-0.9c2,4.3,5.7,12,11.3,12.5c5.4,0.5,9.9-7,11.8-11.1
	c6.1-13.3,5.8-32.5-1.2-45.4c-11-20.4-25,6.8-29.4,17.2c-4.1,9.9-7.1,20.4-9.1,31c-0.1,5.3-0.2,10.6-0.3,15.8
	c-0.2,12.5-0.2,25.1-0.6,37.6c-0.4,11.7-0.2,23.8-2.5,35.4c-0.7,3.2-6,3.3-6.6,0c-2.3-12-1.9-24.5-2.1-36.7c-0.2-12.1,0-24.2,0-36.3
	c0.1-24.8-0.7-49.9,0.6-74.6C418.6,299.9,429.5,299.9,429.8,307.4z M545.9,363.4c6.1-13.3,5.8-32.5-1.2-45.4
	c-11-20.4-25,6.8-29.4,17.2c-4.1,9.9-7.1,20.4-9.1,31c-0.1,5.3-0.2,10.6-0.3,15.8c-0.2,12.5-0.2,25.1-0.6,37.6
	c-0.4,11.7-0.2,23.8-2.5,35.4c-0.7,3.2-6,3.3-6.6,0c-2.3-12-1.9-24.5-2.1-36.7c-0.2-12.1,0-24.2,0-36.3c0.1-24.8-0.7-49.9,0.6-74.6
	c0.4-7.5,11.3-7.5,11.6,0c0.5,11.1,0.5,22.3,0.3,33.5c2.6-9.5,6.5-18.6,12.1-26.4c4.4-6.2,10.8-12.3,19-11.2
	c8.4,1.2,14,8.9,17.1,16.2c7.9,18.4,10.1,46.7-5.4,61.9c-14.6,14.3-38.2,1.8-33.2-18.6c0.7-2.9,5.2-3.7,6.6-0.9
	c2,4.3,5.7,12,11.3,12.5C539.5,375,544,367.5,545.9,363.4z M631.8,441.1c1.8-14.5,2.8-29,3.5-43.5c0.5-11.7,0.9-23.5,1-35.2
	c8.5-11.6,17.6-22.8,26.9-33.8c1.2-1.4-0.7-3.5-2.1-2.1c-8.7,8.7-17,18.1-24.7,27.8c0-2.4,0-4.8,0-7.2c-0.1-13,1.3-27.7-2-40.4
	c-1.2-4.8-9.4-5.5-10.4-0.2c-0.4,0.3-0.7,0.7-0.7,1.2c-2.2,17.1-5.8,35-12.5,50.9c-2.1,5.1-13.8,29.9-22.3,21.2
	c-3.2-3.2-3.7-9.6-4.3-13.8c-1.1-7.3-1.6-14.7-2.1-22c-0.9-12.6-0.3-25.3-1.4-37.9c-0.4-4.9-8.3-6.9-9.3-1.3
	c-2,11.6-1.5,23.7-0.8,35.3c0.7,12.7,2.1,25.8,7.3,37.5c3.5,7.8,9.7,13.9,18.6,9.6c10.5-5,15.6-18.3,19.4-28.4
	c3.3-8.8,5.9-17.7,7.8-26.9c0.1,1.7,0.1,3.4,0.1,5.1c0.2,11.2,0.2,22.5,0.1,33.7c-2.7,3.8-5.4,7.5-8,11.4
	c-15.1,22.4-30.4,48.6-32.2,76.2c-0.7,11.2,0.9,25.5,12.7,30.1c13.7,5.4,24.7-3.5,29.2-16C629.1,462.5,630.5,451.6,631.8,441.1z
	 M619.7,453.2c-1.1,7.6-2,17.3-6.9,23.6c-5.1,6.6-16.2,6-19.5-2.1c-2.1-5.1-2.6-10.9-2.5-16.3c0.4-25.2,14.9-49.9,27.9-70.6
	c1.6-2.6,3.3-5.1,4.9-7.6C623.6,404.5,623.2,429.2,619.7,453.2z M113.7,534.2c-0.8-33-41.7-36.3-46.6-45.8c-5-9.5-22.3-6.6-22.3-6.6
	s-6.6,5.4-7.8,9.1c-1.2,3.3-11.1,32.2-12,82.9c-0.4,51.2,5.4,80,10.3,88.3c4.9,8.3,8.7,10.7,10.7,11.6c11.1,5.8,18.6-2.1,18.6-2.1
	c6.2-0.8,46.2-14.4,48.3-46.6c2.1-34.2-23.5-47.9-23.5-47.9C114.6,560.2,113.7,534.2,113.7,534.2z M47.7,488.8
	c-6.2,21-12,48.7-12,49.1l-0.4,1.6v-1.6c-0.4-18.6,2.9-30.9,5.4-38c3.3-7.8,6.6-11.1,6.6-11.1l0.4-0.8V488.8z M98.1,618
	C97.6,643.6,71.2,653,71.2,653c-2.1-15.3-2.1-43.3-1.2-67.7C70,585.4,98.5,599.8,98.1,618z M70.4,570.1c1.7-30.5,3.7-59.8,3.7-59.8
	s27.6,13.2,26,28.1C98.1,553.2,70.4,570.1,70.4,570.1z M162.4,662.9v-0.4c2.5-3.3,5.8,0,8.3-9.1c1.2-3.7-0.4-36.3-0.8-61.9
	c-0.4-26,0.8-71-0.4-77.6c-0.8-5-4.1-14-7-18.2c-0.4,0-0.4-0.4-0.8-0.8c3.3,0,5.8,0,7-0.4c5.8-0.4,7.4-1.7,7.4-6.2
	c-0.4-5-7.4-4.5-16.9-6.2c-9.5-1.2-28.5,0.8-28.5,0.8c-2.5,0.8-5,2.5-5,4.5c0,1.7,0.4,3.7,2.9,5.8c1.2,0.8,6.6,1.2,12.8,1.6
	c-2.1,3.7-3.3,7.8-3.3,7.8c-7.8,32.6-8.3,90.4-8.3,90.4c1.7,53.2,5.4,59.4,7.8,64.8c0.8,2.1,2.9,3.7,5.4,5c-2.9,0.4-5,0.4-6.2,0.4
	c0,0-9.9,0-10.3,6.2c0,6.6,13.6,6.2,20.2,6.2c9.1,0,29.7-1.2,32.6-1.6c2.5-0.8,1.2-5.8,1.2-5.8C179.3,664.6,171.5,663.4,162.4,662.9
	z M149.2,496.3c-4.5,16.5-7.4,38.8-7.8,39.2v1.2l-0.4-1.2c-2.9-14-0.4-23.9,1.6-29.7c2.9-6.6,6.2-9.9,6.2-9.9l0.4-0.4V496.3z
	 M292,644.8c-4.1-0.4-4.9,7-4.9,7c-2.1,9.9-9.1,8.3-9.1,8.3c-16.5-2.9-30.1-61.9-34.2-81.3c15.3-5,43.7-17.7,46.2-43.7
	c3.3-34.7-41.3-47-55.3-50.3c-4.5-3.3-9.9-2.9-9.9-2.9s-7.8,2.1-10.7,4.5c-2.9,2.5-7,7.4-9.9,16.5c-2.9,9.5-8.3,38-7.8,82.9
	c0.4,45,5.4,68.9,11.1,79.6c2.1,4.1,8.7,9.9,13.2,9.9c7.4,0,15.7-4.5,18.6-13.6c2.1-7,0.4-25.2,0.4-25.2c-0.8-6.2-0.8-11.6-1.2-16.9
	c7.4,26,19.8,53.2,39.2,55.3c0,0,12.8,1.7,18.2-16.1c0.8-3.7,1.2-7,0.8-9.1C296.5,647.7,295.3,645.2,292,644.8z M218.5,492.5
	c-3.3,14.9-6.6,40.4-6.6,40.8v0.8l-0.4-0.8c-3.7-14.4-1.7-24.8,0.4-30.9c2.9-6.6,6.2-9.9,6.2-9.9l0.4-0.4V492.5z M238.7,564.3
	c0.8-21,1.7-23.9,2.9-41.7c0.4-9.1,0-16.9-0.8-22.7c12,3.7,35.9,13.6,34.7,33c0,0,0.4,15.3-36.7,36.3
	C238.7,567.6,238.7,566,238.7,564.3z M352.2,484.7c-3.7-2.1-8.3-2.9-12-2.9c-1.7,0-2.9,1.2-4.1,2.9c-12.8,0-23.5,0.8-27.6,0.4
	c0,0-16.5,0-16.9,7.4c-0.4,7.4,23.1,7,33.8,6.6c1.2,0,2.9,0,4.9,0c-7.4,35.5-7.8,96.1-7.8,96.1c1.2,57.8,5,64.8,7.4,70.6
	c3.3,7,15.3,9.5,15.3,9.5s6.2,0.8,9.9-4.5c2.5-3.7,5.4-0.4,8.3-9.9c1.2-4.1-0.8-39.6-0.8-67.3c-0.4-28.1,0.4-77.2-0.4-84.2
	c-0.4-3.7-1.2-7.4-2.1-11.1c10.3-0.4,19.4-0.8,21.5-1.2c7.8-1.2,6.2-6.2,6.2-6.2C385.6,486.4,369.5,485.1,352.2,484.7z M341.5,495.8
	c-3.7,16.9-5.4,39.6-5.4,39.6l-0.4,1.2v-1.2c-4.1-13.6-2.5-23.5-0.4-29.7c2.5-6.6,5.8-9.9,5.8-9.9l0.4-0.4V495.8z M499.1,504.1
	c0-9.9-1.7-7-2.1-13.2c-0.8-7.8-6.2-8.7-6.2-8.7c-8.7-5-12,54.5-13.2,103.1c-2.9-0.4-5.4-0.4-8.7-0.4c-4.1,0-15.7-0.4-23.5-0.4
	c-2.1,0-4.5,0.4-6.6,0.8c1.7-33.4,4.5-68.9,4.5-75.9c0.4-11.1-3.3-12.8-5.4-17.7c-3.7-10.7-13.6-9.9-13.6-9.9s-7.8,2.1-10.7,4.5
	c-2.9,2.5-7,7.4-9.9,16.5c-2.9,9.5-8.3,38-7.8,82.9c0.4,45,5.4,68.9,11.1,79.6c2.1,4.1,8.7,9.9,13.2,9.9c7.4,0,15.7-4.5,18.6-13.6
	c2.1-7,0.4-25.2,0.4-25.2c-0.8-9.9-1.2-23.9-0.8-38.4c4.9,0.4,11.6,0,15.3,0c4.5-0.4,18.2,0,23.5,0c-0.4,23.1-0.4,41.7,0,45.4
	c0.4,12,3.3,31.8,7.8,31.8c4.1,0,5.8,0,8.3-6.6c2.1-6.6,2.5-13.2,2.5-13.2C493.7,629.5,499.5,514,499.1,504.1z M417.4,492.5
	c-5.4,14.9-8.7,39.6-8.7,40l-0.4,1.2v-1.2c-4.9-26.8,8.7-40.4,8.7-40.4l0.8-0.4L417.4,492.5z M559.7,488.4
	c-4.5-9.1-20.2-6.6-20.2-6.6s-8.3,3.7-11.1,11.6c-1.6,4.5-10.7,20.6-11.1,82.9c0,0-1.7,75.5,18.2,92.4c0,0,5.4,7.4,12,6.6
	c9.1-1.7,14.9-6.2,14.9-6.2c49.1-32.6,48.3-95.7,48.3-95.7C610.1,502.9,563,495.8,559.7,488.4z M539.1,488.8
	c-5.8,21-11.6,48.7-11.6,49.1l-0.4,1.6v-1.6c-0.8-18.6,2.5-30.9,5.4-38c2.9-7.8,6.2-11.1,6.2-11.1l0.8-0.8L539.1,488.8z M563,649.7
	c-8.3-56.9,3.3-138.2,3.3-138.2s29.7,23.5,28.5,62.7C593.1,620,563,649.7,563,649.7z M693.8,490.9c-4.5-8.3-10.7-6.2-13.6-8.3
	c-2.9-1.6-4.9-0.4-7,0c-2.1,0.8-4.1,3.3-4.1,3.3s-41.3,36.7-45.4,176.2c0,0-0.4,7.4,1.2,10.3c1.2,1.7,4.1,2.9,6.6,2.9
	c2.5,0,7.4-2.9,7.4-7c0-6.2,0.4-23.1,2.5-44.1c8.3,0.4,24.8-0.4,36.3-0.4c1.7,0,3.3,0,4.9,0c0.4,9.1,0.8,15.3,1.2,17.7
	c1.7,19.4,7.8,26,9.1,28.1c2.9,4.1,8.3,5,12,6.2c3.7,1.2,7.4-0.4,8.7-1.2c3.3-1.6,7-9.9,7.4-16.5c0.4-6.6,3.7-33-3.3-84.2
	C710.7,523.1,696.7,495.8,693.8,490.9z M670.7,610.5c-9.5,0-12.4,0.8-16.5,0.8c-4.1,0-8.3-0.4-11.1-0.4
	c3.7-32.6,11.6-72.6,27.2-101.1c4.1,10.3,8.7,65.2,11.1,101.1C677.7,610.5,674,610.5,670.7,610.5z M699.2,526.8l-0.4,1.2v-1.2
	c-5.8-19.4-13.6-34.2-13.6-34.2l-0.8-0.8l0.8,0.4C701.2,504.9,699.2,526.8,699.2,526.8z M836.1,482.6c-3.7-2.1-7.8,1.2-9.9,5.4
	c-2.1,4.1-5,9.1-6.2,13.2c-6.6,21.9-16.1,45-27.6,67.7c-9.1-19.8-16.5-40.8-23.9-61.1c-2.9-7.4-7-12.8-11.5-18.6
	c-3.7-5.4-14-9.5-18.6-6.2c-2.9,2.1-5.8,6.2-7.4,9.9c-2.5,4.5-1.7,13.2-0.8,20.2c2.9,30.1,18.2,61.9,33.8,88.3
	c0.8,0.8,1.2,1.7,1.7,2.5c-1.2,45,2.1,56.5,4.5,61.9c2.9,7,14.9,9.5,14.9,9.5s6.6,0.8,9.9-4.5c2.5-3.7,5.8-0.4,8.3-9.9
	c1.2-4.1,0.8-41.3-1.2-68.1c13.6-23.5,25.2-48.7,32.2-73.9C836.1,511.9,842.7,485.9,836.1,482.6z M744.5,533.8
	c-14.9-16.1-6.2-33.4-6.2-33.4l0.4-0.8v0.8c1.2,18.6,6.2,33,6.2,33l0.4,0.8L744.5,533.8z M231.4,454.1l11.1-9.8l-5.9-13.6l12.7,7.5
	l11.1-9.8l-3.2,14.4l12.7,7.5l-14.7,1.4l-3.2,14.4l-5.9-13.6L231.4,454.1z M351.8,459.8l5.6-5.3l-3.3-7l6.7,3.7l5.6-5.3l-1.5,7.6
	l6.7,3.7l-7.7,0.9l-1.5,7.6l-3.3-7L351.8,459.8z M517.7,424.4l9.7-5.5l-2.3-10.9l8.2,7.5l9.7-5.5l-4.6,10.2l8.2,7.5l-11.1-1.2
	l-4.6,10.2l-2.3-10.9L517.7,424.4z M633.6,481.9l6.4-2.7l-0.6-6.9l4.5,5.2l6.4-2.7l-3.6,5.9l4.5,5.2l-6.7-1.6l-3.6,5.9l-0.6-6.9
	L633.6,481.9z M329.5,415.1c0,5.1-4.2,9.3-9.3,9.3c-5.1,0-9.3-4.2-9.3-9.3s4.2-9.3,9.3-9.3C325.3,405.8,329.5,410,329.5,415.1z
	 M473.9,459.4c0,5.1-4.2,9.3-9.3,9.3c-5.1,0-9.3-4.2-9.3-9.3c0-5.1,4.2-9.3,9.3-9.3C469.7,450.1,473.9,454.3,473.9,459.4z
	 M654.9,419.2c-3.7,0-6.7-3-6.7-6.7s3-6.7,6.7-6.7c3.7,0,6.7,3,6.7,6.7S658.6,419.2,654.9,419.2z M194.2,445c5.9-3,10.6-7,13.2-10.9
	c2.3-3.5,3-7,1.6-9.8c-3-5.9-14.2-6.2-25.4-0.5c-6.5,3.2-10.4,9.5-12.6,14.1l-9.9-61.6c4.8-3.2,24.5-17.3,25.4-35.3
	c1-20.5-9.3-37.6-23-38.2c-13.6-0.6-25.4,15.4-26.4,35.9c-0.8,18,17.4,33.8,21.9,37.5l10.2,63.4l-46.5-79.4
	c2.3-5.2,14.9-35.8,2.6-56.5c-13.5-22.7-36.7-33.9-51.8-24.9c-15.1,9-16.4,34.7-3,57.4c11.9,20,43.1,24.1,50.3,24.7l47.5,81
	l-53-33.7c-0.4-4.8-3.7-31.3-20.5-41.1c-18.6-10.8-39.5-9.6-46.7,2.8c-7.2,12.4,2,31.1,20.6,41.9c16.1,9.4,39.2,0.4,45.2-2.1
	l50.9,32.4c-5.1-0.8-12.4-1.1-18.8,2.4c-11,6.1-17.2,15.4-14,21.2c1.6,2.9,5.2,4.4,10.1,4.2c4.7-0.2,10.1-1.8,15.3-4.7
	c3.9-2.1,6.7-5.3,8.9-8.5c0.7-1.1,1.3-2.2,1.9-3.3c0,2.1,0.3,4.3,1.4,6.4c3.4,6.8,9.2,10.5,13.2,8.5c0.8-0.4,1.5-1,2-1.8
	c0.8-1.2,1.2-2.7,1.3-4.5c0.1-2.9-0.7-6.2-2.3-9.3c-1.2-2.4-3.2-4.2-5.2-5.5C183.2,447.8,189,447.6,194.2,445z M66.1,402.9
	c0,0.1-0.1,0.1-0.1,0.2c-0.4,0.6-1.2,0.6-1.7,0.2c-9-7.7-13.4-17.5-11.5-25.6c0.1-0.7,0.8-1.1,1.5-0.9c0.7,0.1,1.1,0.8,0.9,1.5
	c-1.6,7.1,2.6,16.2,10.7,23.2C66.3,401.8,66.3,402.5,66.1,402.9z M184.4,425.6c9.9-5,20.3-5.2,22.7-0.4c2.4,4.8-3.9,13.1-13.9,18
	c-7.9,4-17.5,1.7-21.4,0.5l-0.3-2.1C173.2,437.4,177.1,429.3,184.4,425.6z M144.5,331.6c-0.1,0.6-0.6,0.9-1.2,0.9
	c-0.1,0-0.2,0-0.2,0c-0.7-0.1-1-0.8-0.9-1.4c2.5-11,8.9-19.1,16.6-21c0.6-0.2,1.3,0.2,1.4,0.8c0.2,0.6-0.2,1.3-0.9,1.4
	C152.7,314.1,146.9,321.7,144.5,331.6z M114.5,300.3c0,0.1-0.1,0.1-0.2,0.2c-0.6,0.4-1.4,0.3-1.9-0.3c-8.6-9.9-19.9-15-28.6-12.9
	c-0.8,0.2-1.7-0.3-1.8-1.1c-0.2-0.8,0.3-1.6,1.1-1.8c10-2.4,22.1,2.9,31.6,13.9C115.2,298.8,115.2,299.7,114.5,300.3z M156.5,463.5
	c-4.9,2.7-10,4.3-14.4,4.4c-4.1,0.1-7.1-1-8.3-3.2c-1.2-2.2-0.5-5.2,1.5-8.4c2.3-3.6,6.5-7.3,11.6-10.2c8.4-4.6,19.3-2,22.4-1
	C168.5,448.3,164.9,458.9,156.5,463.5z M181.9,453.6c1.4,2.8,2.2,5.8,2.1,8.3c-0.1,2.3-0.8,4-2.1,4.6c-2.8,1.4-7.6-2-10.5-7.6
	c-2.3-4.6-0.6-10.5,0.2-12.7C173.8,446.9,179.6,449,181.9,453.6z M751.2,470.1c3-6-3.6-15-14.8-20.7c-6.5-3.2-13.8-2.6-18.9-1.6
	L761,403c5.4,1.9,28.5,9.3,43.4-0.8c17-11.5,24.5-30,16.9-41.3c-7.6-11.3-27.6-11.1-44.6,0.4c-14.9,10.1-16.7,34.2-16.9,40
	l-44.6,46.1l35.7-84.8c5.5-1.3,37.6-9.5,46.8-31.8c10.1-24.4,5.2-49.6-11.1-56.4c-16.3-6.7-37.6,7.6-47.7,32
	c-8.9,21.5,6.5,48.9,10.3,55.1l-36.5,86.6l-4.7-62.6c3.6-3.2,22.9-21.7,20.7-41.1c-2.5-21.4-16-37.3-30.2-35.7
	c-14.2,1.6-23.7,20.3-21.2,41.6c2.1,18.5,23.1,31.7,28.8,34.9l4.5,60.2c-2.4-4.6-6.6-10.6-13.2-13.6c-11.5-5.2-22.6-4.5-25.4,1.5
	c-1.4,3-0.4,6.8,2.7,10.6c2.9,3.7,7.5,7,12.9,9.5c4,1.8,8.3,2.2,12.2,2c1.3-0.1,2.6-0.3,3.8-0.5c-1.7,1.3-3.3,2.8-4.3,4.9
	c-3.4,6.8-2.9,13.7,1.1,15.6c0.8,0.4,1.7,0.6,2.6,0.5c1.4-0.1,2.9-0.7,4.4-1.7c2.4-1.6,4.5-4.3,6.1-7.4c1.2-2.4,1.4-5,1.3-7.4
	c2.4,4.1,5.9,8.6,11.2,11.2c6,3,11.9,4.3,16.6,4C746.6,474.5,749.8,472.9,751.2,470.1z M785.9,360.9c10.3-4.6,20.6-4.3,26.8,0.7
	c0.5,0.4,0.6,1.2,0.2,1.6c-0.4,0.5-1.2,0.6-1.7,0.2c-5.5-4.3-15-4.5-24.4-0.4c-0.5,0.2-1.1,0-1.4-0.4c-0.1-0.1-0.1-0.1-0.1-0.2
	C785.1,361.8,785.4,361.1,785.9,360.9z M785.9,285.6c0.5-0.6,1.5-0.7,2.1-0.2c7.9,6.5,10.9,19.4,7.8,33.6c-0.2,0.8-1,1.4-1.8,1.1
	c-0.1,0-0.2,0-0.3-0.1c-0.6-0.3-1.1-1-0.9-1.7c2.8-12.9,0.1-24.9-6.8-30.6C785.4,287.2,785.3,286.3,785.9,285.6z M696,319.3
	c-6.7,3-11.4,11.8-12.1,22.5c0,0.6-0.5,1.1-1.1,1.1c-0.1,0-0.2,0-0.2,0c-0.7,0-1.2-0.6-1.2-1.3c0.8-11.8,6-21.2,13.6-24.5
	c0.6-0.3,1.4,0,1.6,0.6C696.9,318.3,696.6,319,696,319.3z M688.4,451.6c-5.1-2.3-9.4-5.5-12.2-8.9c-2.6-3.2-3.5-6.3-2.4-8.6
	c1-2.3,3.9-3.5,7.6-3.8c4.3-0.3,9.7,0.8,15.1,3.3c8.7,4,13.1,14.2,14.2,17.3C707.8,452.1,697.1,455.6,688.4,451.6z M711.6,466
	c-1.4,2.9-3.3,5.2-5.4,6.7c-1.9,1.3-3.7,1.7-5,1.1c-2.9-1.4-2.9-7.3-0.2-13c2.3-4.6,8.1-6.8,10.2-7.4
	C712.1,455.4,713.9,461.4,711.6,466z M726.7,468.9c-7.9-3.9-11.9-13-13.3-16.8l1.5-1.5c4.4-1.2,13.2-3,20.6,0.7
	c9.9,5,16.3,13.2,13.9,18C747.1,474,736.7,473.9,726.7,468.9z M396.3,246c-1.4-1.8-1-4.4,0.9-5.8c1.8-1.4,4.4-1,5.8,0.9l24.4,33
	c1.4,1.8,1,4.4-0.9,5.8c-0.7,0.5-1.6,0.8-2.4,0.8c-1.3,0-2.5-0.6-3.3-1.7L396.3,246z M463.7,193c-0.6-2.2,0.7-4.5,2.9-5
	c2.2-0.6,4.5,0.7,5,2.9l19.6,74c0.6,2.2-0.7,4.5-2.9,5c-0.4,0.1-0.7,0.1-1.1,0.1c-1.8,0-3.5-1.2-4-3.1L463.7,193z M538,265l21-61.9
	c0.7-2.2,3.1-3.3,5.2-2.6c2.2,0.7,3.3,3.1,2.6,5.2l-21,61.9c-0.6,1.7-2.2,2.8-3.9,2.8c-0.4,0-0.9-0.1-1.3-0.2
	C538.5,269.5,537.3,267.1,538,265z M595.7,283.8c-1.9-1.3-2.4-3.9-1.1-5.7l22.3-32.7c1.3-1.9,3.8-2.4,5.7-1.1
	c1.9,1.3,2.4,3.9,1.1,5.7l-22.3,32.7c-0.8,1.2-2.1,1.8-3.4,1.8C597.2,284.5,596.4,284.3,595.7,283.8z"/>
</svg>
